# AST/ASF file generated using VICON BodyLanguage
# -----------------------------------------------
:version 1.10
:name VICON
:units
  mass 1.0
  length 0.45
  angle deg
:documentation
   .ast/.asf automatically generated from VICON data using
   VICON BodyBuilder and BodyLanguage model FoxedUp or BRILLIANT.MOD
:root
   order TX TY TZ RX RY RZ
   axis XYZ
   position 0 0 0  
   orientation 0 0 0 
:bonedata
  begin
     id 1 
     name lhipjoint
     direction 0.630082 -0.636569 0.44472 
     length 2.82754 
     axis 0 0 0  XYZ
  end
  begin
     id 2 
     name lfemur
     direction 0.34202 -0.939693 0  
     length 7.26371  
     axis 0 0 20  XYZ
    dof rx ry rz
    limits (-160.0 20.0)
           (-70.0 70.0)
           (-60.0 70.0)
  end
  begin
     id 3 
     name ltibia
     direction 0.34202 -0.939693 0   
     length 7.88616   
     axis 0 0 20   XYZ
    dof rx
    limits (-10.0 170.0)
  end
  begin
     id 4 
     name lfoot
     direction 0.0603448 -0.165796 0.984312   
     length 1.77861   
     axis -90 7.62852e-016 20   XYZ
    dof rx rz
    limits (-45.0 90.0)
           (-70.0 20.0)
  end
  begin
     id 5 
     name ltoes
     direction 1.53577e-011 -4.21876e-011 1   
     length 0.902235   
     axis -90 7.62852e-016 20   XYZ
    dof rx
    limits (-90.0 20.0)
  end
  begin
     id 6 
     name rhipjoint
     direction -0.656778 -0.61817 0.431866   
     length 2.9117  
     axis 0 0 0  XYZ 
  end
  begin
     id 7 
     name rfemur
     direction -0.34202 -0.939693 0   
     length 6.81603   
     axis 0 0 -20   XYZ
    dof rx ry rz
    limits (-160.0 20.0)
           (-70.0 70.0)
           (-70.0 60.0)
  end
  begin
     id 8 
     name rtibia
     direction -0.34202 -0.939693 0   
     length 8.05997   
     axis 0 0 -20   XYZ
    dof rx
    limits (-10.0 170.0)
 end
 begin
     id 9 
     name rfoot
     direction -0.0862404 -0.236944 0.967688   
     length 1.84899  
     axis -90 -7.62852e-016 -20   XYZ
    dof rx rz
    limits (-45.0 90.0)
           (-20.0 70.0)
  end
  begin
     id 10 
     name rtoes
     direction -1.53561e-011 -4.21798e-011 1   
     length 0.931579   
     axis -90 -7.62852e-016 -20   XYZ
    dof rx
    limits (-90.0 20.0)
  end
  begin
     id 11 
     name lowerback
     direction -0.0110203 0.991769 -0.127564   
     length 2.05686   
     axis 0 0 0   XYZ
    dof rx ry rz
    limits (-20.0 45.0)
           (-30.0 30.0)
           (-30.0 30.0)
  end
  begin
     id 12 
     name upperback
     direction 0.0109719 0.99993 -0.00432479   
     length 2.06234   
     axis 0 0 0   XYZ
    dof rx ry rz
    limits (-20.0 45.0)
           (-30.0 30.0)
           (-30.0 30.0)
  end
  begin
     id 13 
     name thorax
     direction 0.0173308 0.998351 0.0547306   
     length 2.09856   
     axis 0 0 0   XYZ
    dof rx ry rz
    limits (-20.0 45.0)
           (-30.0 30.0)
           (-30.0 30.0)
  end
  begin
     id 14 
     name lowerneck
     direction -0.0311736 0.989033 0.144366   
     length 1.98151   
     axis 0 0 0   XYZ
    dof rx ry rz
    limits (-20.0 45.0)
           (-30.0 30.0)
           (-30.0 30.0)
  end
  begin
     id 15 
     name upperneck
     direction 0.0421057 0.975772 -0.214698   
     length 2.01457   
     axis 0 0 0   XYZ
    dof rx ry rz
    limits (-20.0 45.0)
           (-30.0 30.0)
           (-30.0 30.0)
  end
  begin
     id 16
     name head
     direction 0.0136911 0.995958 -0.0887718  
     length 2.03562  
     axis 0 0 0   XYZ
    dof rx ry rz
    limits (-20.0 45.0)
           (-30.0 30.0)
           (-30.0 30.0)
  end
  begin
     id 17 
     name lclavicle
     direction 0.915335 0.396201 0.0720134  
     length 4.16217  
     axis 0 0 0   XYZ
    dof ry rz
    limits (-20.0 10.0)
           (0.0 20.0)
  end
  begin
     id 18 
     name lhumerus
     direction 1 -4.48965e-011 6.383e-018   
     length 4.93042   
     axis -180 -30 -90   XYZ
    dof rx ry rz
    limits (-60.0 90.0)
           (-90.0 90.0)
           (-90.0 90.0)
  end
  begin
     id 19
     name lradius
     direction 1 -4.48972e-011 8.8689e-027   
     length 3.68177   
     axis -180 -30 -90   XYZ
    dof rx
    limits (-10.0 170.0)
  end
  begin
     id 20
     name lwrist
     direction 1 -4.48953e-011 1.17971e-026   
     length 1.84089   
     axis -7.69454e-015 90 90   XYZ
    dof ry
    limits (-180.0 0.0)
 end
  begin
     id 21 
     name lhand
     direction 1 -4.49027e-011 2.35802e-026   
     length 0.721479   
     axis -1.50533e-014 90 90   XYZ
    dof rx rz
    limits (-90.0 90.0)
           (-45.0 45.0)
  end
  begin
     id 22 
     name lfingers
     direction 1 -4.48915e-011 4.72027e-026   
     length 0.581675   
     axis -3.01059e-014 90 90   XYZ
    dof rx
    limits (0.0 90.0)
  end
  begin
     id 23
     name lthumb
     direction 0.707107 -6.34948e-011 0.707107   
     length 0.835172   
     axis -90 45 -5.12164e-014   XYZ
    dof rx rz
    limits (-45.0 45.0)
           (-45.0 45.0)
  end
  begin
     id 24 
     name rclavicle
     direction -0.882781 0.469197 0.0234974   
     length 3.95647  
     axis 0 0 0   XYZ 
    dof ry rz
    limits (-10.0 20.0)
           (-20.0 0.0)
  end
  begin
     id 25 
     name rhumerus
     direction -1 -4.48965e-011 -1.54906e-018  
     length 5.07905   
     axis -180 30 90   XYZ
    dof rx ry rz
    limits (-90.0 60.0)
           (-90.0 90.0)
           (-90.0 90.0)
  end
  begin
     id 26 
     name rradius
     direction -1 -4.48972e-011 5.47489e-027   
     length 3.54394   
     axis -180 30 90   XYZ
    dof rx
    limits (-10.0 170.0)
  end
  begin
     id 27 
     name rwrist
     direction -1 -4.48955e-011 1.17969e-026   
     length 1.77197   
     axis -7.69454e-015 -90 -90   XYZ
    dof ry
    limits (-180.0 0.0)
  end
  begin
     id 28
     name rhand
     direction -1 -4.48982e-011 2.35888e-026   
     length 0.681156   
     axis -1.50533e-014 -90 -90   XYZ
    dof rx rz
    limits (-90.0 90.0)
           (-45.0 45.0)
  end
  begin
     id 29
     name rfingers
     direction -1 -4.48955e-011 4.71877e-026   
     length 0.549165   
     axis -3.01059e-014 -90 -90   XYZ
    dof rx
    limits (0.0 90.0)
  end
  begin
     id 30
     name rthumb
     direction -0.707107 -6.3491e-011 0.707107   
     length 0.788495   
     axis -90 -45 5.12164e-014   XYZ
    dof rx rz
    limits (-45.0 45.0)
           (-45.0 45.0)
  end
:hierarchy
  begin
    root lhipjoint rhipjoint lowerback
    lhipjoint lfemur
    lfemur ltibia
    ltibia lfoot
    lfoot ltoes
    rhipjoint rfemur
    rfemur rtibia
    rtibia rfoot
    rfoot rtoes
    lowerback upperback
    upperback thorax
    thorax lowerneck lclavicle rclavicle
    lowerneck upperneck
    upperneck head
    lclavicle lhumerus
    lhumerus lradius
    lradius lwrist
    lwrist lhand lthumb
    lhand lfingers
    rclavicle rhumerus
    rhumerus rradius
    rradius rwrist
    rwrist rhand rthumb
    rhand rfingers
  end

#!OML:ASF H:\Bending\Project 1\Capture day 1\Session 1\Subject.ASF
:FULLY-SPECIFIED
:DEGREES
32
root -10.1901 18.0371 -16.7341 -144.77 87.3641 -149.629
lowerback 7.65516 0.182846 0.627332
upperback -1.97049 0.452048 2.0537
thorax -6.37347 0.249061 1.73517
lowerneck -24.4085 -3.93445 -5.93882
upperneck 32.6597 -3.16175 1.21581
head 15.8171 -1.69845 0.945704
rclavicle 8.34896e-015 2.82274e-014
rhumerus -42.5279 -14.0953 -68.1169
rradius 27.2048
rwrist 13.6669
rhand -17.2665 -18.3707
rfingers 7.12502
rthumb 8.97817 -48.1597
lclavicle 8.34896e-015 2.82274e-014
lhumerus -40.2953 18.2548 76.8243
lradius 19.531
lwrist 6.96533
lhand -32.1904 8.28549
lfingers 7.12502
lthumb -5.43255 38.1959
rfemur 3.15659 -7.71657 14.6022
rtibia -8.74653e-015
rfoot -8.45668 -16.385
rtoes 5.95241
lfemur -11.8284 -16.368 -12.5064
ltibia 22.3961
lfoot -21.9388 17.2946
ltoes -30.7881
33
root -10.1903 18.0367 -16.7192 -144.837 87.3667 -149.692
lowerback 7.65325 0.159348 0.603596
upperback -1.95786 0.417799 2.05368
thorax -6.35829 0.232998 1.7529
lowerneck -24.3694 -3.91121 -5.95285
upperneck 32.6061 -3.16792 1.32428
head 15.7849 -1.68697 0.993538
rclavicle -2.28602e-015 -1.31198e-014
rhumerus -42.6316 -14.074 -67.9536
rradius 27.2337
rwrist 13.776
rhand -17.0865 -18.2094
rfingers 7.12502
rthumb 9.15185 -47.9908
lclavicle -2.28602e-015 -1.31198e-014
lhumerus -40.403 18.2629 76.7537
lradius 19.5331
lwrist 6.59313
lhand -32.1682 8.12573
lfingers 7.12502
lthumb -5.41116 38.0366
rfemur 3.16769 -7.71446 14.6495
rtibia 3.10104e-014
rfoot -8.56496 -16.3607
rtoes 6.35939
lfemur -11.8055 -16.4288 -12.4582
ltibia 22.3643
lfoot -21.966 17.34
ltoes -30.7502
34
root -10.191 18.0363 -16.7041 -145.185 87.3518 -150.037
lowerback 7.65192 0.122839 0.587487
upperback -1.94281 0.36671 2.05105
thorax -6.34031 0.208264 1.76578
lowerneck -24.336 -3.88721 -5.97505
upperneck 32.5575 -3.17466 1.44802
head 15.757 -1.6745 1.04907
rclavicle -7.90169e-015 6.36111e-015
rhumerus -42.6854 -13.8289 -67.9545
rradius 27.3472
rwrist 13.6551
rhand -16.8505 -18.1067
rfingers 7.12502
rthumb 9.37959 -47.878
lclavicle -7.90169e-015 6.36111e-015
lhumerus -40.4632 18.225 76.7441
lradius 19.6658
lwrist 6.5051
lhand -32.1678 8.02202
lfingers 7.12502
lthumb -5.41076 37.9329
rfemur 3.18023 -7.73416 14.6956
rtibia -1.66979e-014
rfoot -8.6574 -16.3477
rtoes 6.78914
lfemur -11.7834 -16.5653 -12.4073
ltibia 22.3203
lfoot -22.0142 17.4081
ltoes -30.5238
35
root -10.1923 18.036 -16.689 -145.587 87.3234 -150.434
lowerback 7.65897 0.0900056 0.59757
upperback -1.92444 0.322888 2.04254
thorax -6.32361 0.18596 1.75677
lowerneck -24.3119 -3.87536 -6.00452
upperneck 32.5159 -3.19435 1.56923
head 15.7355 -1.66867 1.10193
rclavicle 4.52235e-015 3.97569e-015
rhumerus -42.7007 -13.43 -68.0724
rradius 27.5112
rwrist 13.3616
rhand -16.6337 -18.0547
rfingers 7.12502
rthumb 9.58879 -47.8165
lclavicle 4.52235e-015 3.97569e-015
lhumerus -40.4538 18.038 76.8616
lradius 19.9231
lwrist 6.7429
lhand -32.1774 8.00875
lfingers 7.12502
lthumb -5.42006 37.9194
rfemur 3.19151 -7.7661 14.7475
rtibia 2.38542e-015
rfoot -8.70665 -16.3513
rtoes 7.10933
lfemur -11.7591 -16.7532 -12.3506
ltibia 22.2697
lfoot -22.0547 17.5126
ltoes -30.2899
36
root -10.1945 18.0356 -16.6739 -145.901 87.2912 -150.737
lowerback 7.68298 0.0726781 0.633584
upperback -1.90308 0.302353 2.02887
thorax -6.31392 0.174034 1.72476
lowerneck -24.2976 -3.87748 -6.02799
upperneck 32.4824 -3.22408 1.65863
head 15.72 -1.67093 1.13795
rclavicle -3.37934e-015 -1.31198e-014
rhumerus -42.6839 -13.0209 -68.2128
rradius 27.6712
rwrist 13.0334
rhand -16.5025 -18.0103
rfingers 7.12502
rthumb 9.71541 -47.7662
lclavicle -3.37934e-015 -1.31198e-014
lhumerus -40.3706 17.6644 77.1315
lradius 20.2919
lwrist 7.26957
lhand -32.1877 8.08996
lfingers 7.12502
lthumb -5.42997 38.0004
rfemur 3.19783 -7.79845 14.8065
rtibia 8.74653e-015
rfoot -8.69817 -16.3719
rtoes 7.21227
lfemur -11.7312 -16.9305 -12.2909
ltibia 22.2162
lfoot -22.0368 17.6517
ltoes -30.3281
37
root -10.198 18.0354 -16.6584 -146.1 87.2639 -150.921
lowerback 7.72834 0.0714459 0.678248
upperback -1.88041 0.304643 2.01524
thorax -6.31564 0.17306 1.68501
lowerneck -24.2933 -3.88318 -6.02405
upperneck 32.462 -3.24553 1.68505
head 15.7107 -1.67556 1.14401
rclavicle 8.59744e-015 0
rhumerus -42.6298 -12.7496 -68.283
rradius 27.7763
rwrist 12.8256
rhand -16.485 -17.9271
rfingers 7.12502
rthumb 9.73226 -47.6823
lclavicle 8.59744e-015 0
lhumerus -40.2299 17.1541 77.5245
lradius 20.7522
lwrist 7.976
lhand -32.1959 8.23745
lfingers 7.12502
lthumb -5.4379 38.1477
rfemur 3.19403 -7.82336 14.8706
rtibia 1.11319e-014
rfoot -8.63284 -16.4049
rtoes 7.046
lfemur -11.7035 -17.0208 -12.2324
ltibia 22.161
lfoot -21.9092 17.804
ltoes -30.8852
38
root -10.203 18.0357 -16.6423 -146.251 87.2442 -151.057
lowerback 7.79199 0.0762976 0.70855
upperback -1.85897 0.31453 2.00862
thorax -6.32942 0.176579 1.65977
lowerneck -24.3009 -3.87618 -5.97447
upperneck 32.4633 -3.23535 1.63122
head 15.71 -1.67302 1.11455
rclavicle -2.18663e-015 5.56597e-015
rhumerus -42.5287 -12.6895 -68.2413
rradius 27.8097
rwrist 12.8257
rhand -16.5661 -17.7975
rfingers 7.12502
rthumb 9.65403 -47.5563
lclavicle -2.18663e-015 5.56597e-015
lhumerus -40.0551 16.6061 77.9802
lradius 21.2804
lwrist 8.73178
lhand -32.2061 8.4044
lfingers 7.12502
lthumb -5.44772 38.3144
rfemur 3.17404 -7.84101 14.9374
rtibia -7.15625e-015
rfoot -8.52329 -16.4428
rtoes 6.62211
lfemur -11.6864 -16.9677 -12.1758
ltibia 22.1029
lfoot -21.6513 17.9313
ltoes -32.0084
39
root -10.2095 18.0368 -16.6251 -146.452 87.2274 -151.254
lowerback 7.86395 0.0735968 0.709982
upperback -1.84101 0.312453 2.01354
thorax -6.35159 0.175614 1.66451
lowerneck -24.3223 -3.84446 -5.87599
upperneck 32.495 -3.17982 1.50555
head 15.722 -1.65587 1.0555
rclavicle 5.51627e-015 1.63003e-014
rhumerus -42.3777 -12.7951 -68.123
rradius 27.8057
rwrist 12.994
rhand -16.7079 -17.6793
rfingers 7.12502
rthumb 9.51722 -47.4444
lclavicle 5.51627e-015 1.63003e-014
lhumerus -39.8616 16.108 78.4446
lradius 21.8548
lwrist 9.4403
lhand -32.2248 8.54555
lfingers 7.12502
lthumb -5.46577 38.4551
rfemur 3.13227 -7.85877 15.0068
rtibia -1.43125e-014
rfoot -8.38537 -16.4782
rtoes 5.9967
lfemur -11.6927 -16.7625 -12.1174
ltibia 22.0397
lfoot -21.2895 17.9932
ltoes -33.4893
40
root -10.2172 18.039 -16.607 -146.779 87.2061 -151.595
lowerback 7.93157 0.0551901 0.684721
upperback -1.8273 0.28737 2.02879
thorax -6.37541 0.164616 1.69821
lowerneck -24.358 -3.7886 -5.7464
upperneck 32.561 -3.08576 1.34439
head 15.7505 -1.62371 0.984042
rclavicle 2.83268e-015 5.1684e-015
rhumerus -42.1868 -12.9201 -68.0243
rradius 27.8373
rwrist 13.1712
rhand -16.8783 -17.6795
rfingers 7.12502
rthumb 9.35273 -47.452
lclavicle 2.83268e-015 5.1684e-015
lhumerus -39.6485 15.6812 78.8997
lradius 22.4598
lwrist 10.0739
lhand -32.255 8.63491
lfingers 7.12502
lthumb -5.49494 38.5437
rfemur 3.06589 -7.88561 15.0792
rtibia 6.36111e-015
rfoot -8.23034 -16.5064
rtoes 5.24369
lfemur -11.7302 -16.4519 -12.0526
ltibia 21.9692
lfoot -20.8911 17.9681
ltoes -34.9539
41
root -10.2257 18.042 -16.5885 -147.256 87.1769 -152.107
lowerback 7.98538 0.0243042 0.649414
upperback -1.81648 0.244533 2.04689
thorax -6.39394 0.145339 1.74295
lowerneck -24.4053 -3.72341 -5.61957
upperneck 32.6575 -2.98084 1.20036
head 15.7967 -1.58451 0.922696
rclavicle -1.14301e-015 1.19271e-015
rhumerus -41.974 -12.9034 -68.0464
rradius 27.9756
rwrist 13.1651
rhand -17.0678 -17.8983
rfingers 7.12502
rthumb 9.16996 -47.6789
lclavicle -1.14301e-015 1.19271e-015
lhumerus -39.4019 15.2706 79.3672
lradius 23.0873
lwrist 10.6664
lhand -32.2934 8.67157
lfingers 7.12502
lthumb -5.53197 38.5794
rfemur 2.97641 -7.92523 15.1528
rtibia 1.19271e-014
rfoot -8.06133 -16.5262
rtoes 4.43188
lfemur -11.7962 -16.1168 -11.9807
ltibia 21.8894
lfoot -20.5331 17.8662
ltoes -36.0427
42
root -10.2344 18.0454 -16.5703 -147.852 87.1448 -152.752
lowerback 8.02301 -0.00582751 0.624226
upperback -1.80521 0.20285 2.05738
thorax -6.40261 0.126033 1.77383
lowerneck -24.4595 -3.67099 -5.53094
upperneck 32.7739 -2.90168 1.12131
head 15.8578 -1.55089 0.89044
rclavicle 6.55989e-015 -7.95139e-016
rhumerus -41.7569 -12.6757 -68.2291
rradius 28.2451
rwrist 12.8746
rhand -17.2849 -18.3596
rfingers 7.12502
rthumb 8.96047 -48.1493
lclavicle 6.55989e-015 -7.95139e-016
lhumerus -39.1055 14.7795 79.8885
lradius 23.7351
lwrist 11.2752
lhand -32.3322 8.67384
lfingers 7.12502
lthumb -5.56945 38.5807
rfemur 2.87008 -7.97213 15.2217
rtibia 1.59028e-014
rfoot -7.87585 -16.5401
rtoes 3.6156
lfemur -11.8757 -15.8365 -11.9075
ltibia 21.7993
lfoot -20.2696 17.7231
ltoes -36.5485
43
root -10.2429 18.0485 -16.5532 -148.517 87.1217 -153.47
lowerback 8.05007 -0.0198215 0.620321
upperback -1.78902 0.183474 2.05214
thorax -6.40042 0.116442 1.77316
lowerneck -24.5159 -3.64902 -5.50051
upperneck 32.8968 -2.87565 1.1298
head 15.9283 -1.53349 0.894788
rclavicle -3.67752e-015 3.22031e-014
rhumerus -41.5406 -12.3154 -68.5231
rradius 28.603
rwrist 12.3653
rhand -17.5392 -18.9737
rfingers 7.12502
rthumb 8.71504 -48.7738
lclavicle -3.67752e-015 3.22031e-014
lhumerus -38.753 14.127 80.4947
lradius 24.4042
lwrist 11.9402
lhand -32.3657 8.66567
lfingers 7.12502
lthumb -5.6018 38.5716
rfemur 2.75712 -8.0137 15.2773
rtibia -9.54166e-015
rfoot -7.67158 -16.5532
rtoes 2.83322
lfemur -11.947 -15.6541 -11.8438
ltibia 21.6989
lfoot -20.1128 17.5795
ltoes -36.4719
